<svg xmlns="http://www.w3.org/2000/svg" viewBox="0 0 48 48" shape-rendering="crispEdges">
  <!-- Shield body -->
  <rect x="8" y="4" width="32" height="4" fill="#e8a045"/>
  <rect x="4" y="8" width="40" height="4" fill="#e8a045"/>
  <rect x="4" y="12" width="40" height="20" fill="#162035"/>
  <rect x="4" y="12" width="4" height="20" fill="#e8a045"/>
  <rect x="40" y="12" width="4" height="20" fill="#e8a045"/>
  <rect x="8" y="32" width="32" height="4" fill="#e8a045"/>
  <rect x="12" y="36" width="24" height="4" fill="#e8a045"/>
  <rect x="16" y="40" width="16" height="4" fill="#e8a045"/>
  <rect x="20" y="44" width="8" height="2" fill="#e8a045"/>
  <!-- Flame top -->
  <rect x="22" y="14" width="4" height="4" fill="#f5c06b"/>
  <rect x="20" y="16" width="8" height="4" fill="#f5c06b"/>
  <!-- Flame middle -->
  <rect x="18" y="20" width="12" height="4" fill="#e8a045"/>
  <rect x="16" y="22" width="16" height="4" fill="#e8a045"/>
  <!-- Logs -->
  <rect x="12" y="26" width="24" height="4" fill="#8b6343"/>
  <rect x="14" y="24" width="4" height="6" fill="#6b4a2a"/>
  <rect x="30" y="24" width="4" height="6" fill="#6b4a2a"/>
</svg>
